<svg xmlns="http://www.w3.org/2000/svg" class="ionicon" viewBox="0 0 512 512">

<g transform="translate(0.000000,512.000000) scale(0.100000,-0.100000)"
fill="#000000" stroke="none"  style="fill: gray">
<path d="M805 4748 c-89 -16 -204 -80 -278 -153 -77 -76 -138 -190 -156 -289
-15 -83 -15 -3409 0 -3492 18 -99 79 -213 156 -289 76 -76 190 -137 287 -154
83 -15 3409 -15 3492 0 99 18 213 79 289 156 76 76 137 190 154 287 15 83 15
3409 0 3492 -38 213 -230 405 -443 443 -77 14 -3428 13 -3501 -1z m3160 -970
l26 -23 -76 -375 c-250 -1230 -416 -2006 -433 -2030 -27 -36 -66 -37 -115 -4
-23 15 -165 117 -316 227 -335 243 -356 257 -399 257 -40 0 -50 -6 -260 -177
-90 -73 -177 -140 -194 -149 -36 -19 -68 -9 -92 28 -8 13 -69 198 -135 411
-65 213 -126 398 -134 411 -11 17 -91 50 -323 135 -322 118 -384 147 -384 182
0 35 28 76 62 90 222 93 2691 1037 2715 1038 20 1 42 -8 58 -21z"/>
<path d="M2705 2900 c-346 -214 -647 -403 -667 -420 -60 -50 -60 -67 17 -337
80 -285 87 -303 115 -303 28 0 34 21 54 179 18 141 33 190 69 230 22 24 955
894 1034 964 44 40 57 78 26 76 -10 0 -301 -175 -648 -389z"/>
</g>
</svg>
